<svg xmlns="http://www.w3.org/2000/svg" viewBox="-1780 1176.474 188.532 35.934">
  <defs>
    <style>
      .color-dark {
        fill: rgba(1,30,65,1);
      }
      .color-light{
        fill: rgba(25,211,197,1);
      }
    </style>
  </defs>

  <g id="svg_logo_circuit" data-name="data_logo_circuit" transform="translate(-1927 1117)">

    <g id="Logo" transform="translate(-133 23.474)">

      <path id="Path_1" data-name="Path 1" class="color-light" d="M467.174,23.247h3.38V21.764h5.656v-.621h-5.656V18.729h0v-5h-.966V10.177h9.449V.9H451v9.277h9.242v3.552h1v4.414H460.1v4.621H455.9v5.1h4.552V28.7h-.207v7.794h9.346V29.523h1.31V27.868h-3.724Z" transform="translate(-15.471 35.41)"/>
      
      <path id="Path_2" data-name="Path 2" class="color-light" d="M17.76,27.14a8.081,8.081,0,0,1-8.345-8.345,9.423,9.423,0,0,1,.552-3.173h2.586a7.665,7.665,0,0,1,3.345-4V10.9h-1a8.588,8.588,0,0,1,2.862-.448,8.333,8.333,0,0,1,5.966,2.311l6.552-6.587A17.723,17.723,0,0,0,1.862,10.9H4.449A17.272,17.272,0,0,0,2.9,15.622H.276A19.049,19.049,0,0,0,0,18.794,17.753,17.753,0,0,0,30.382,31.278L23.76,24.726A8.13,8.13,0,0,1,17.76,27.14Z" transform="translate(280 35.345)"/>
      
      <path id="Path_3" data-name="Path 3" class="color-light" d="M94.9,5.931H90.179v.655h2.759V28.623H89.8v2.9h3.138v5.035h9.346V31.52h-.828v-2.9h.828V6.276h1.931v-4.1h-2.276V1.517h2.276V1H94.9Z" transform="translate(221.168 35.345)"/>
      
      <path id="Path_4" data-name="Path 4" class="color-light" d="M146.511,90.038h-2.276v-.655h2.276V88.9H137.2v5.242h9.311V92.073h3.931v-.621h-3.931Z" transform="translate(190.114 -22.242)"/>
     
      <path id="Path_5" data-name="Path 5" class="color-light" d="M241.143,9.794a8.333,8.333,0,0,1,5.966,2.311l6.552-6.587a17.593,17.593,0,0,0-8.552-4.69V3H236.8V2.655h4.725V0H225.9V2.345h-3.138V3h9.173a17.746,17.746,0,0,0-8.552,15.174,18.773,18.773,0,0,0,.1,1.966H219.9a17.62,17.62,0,0,0,1.035,4.276h2.448a17.746,17.746,0,0,0,29.244,6.242l-6.621-6.552a8.159,8.159,0,0,1-5.966,2.379,8.364,8.364,0,0,1-5.69-2.1H231.9a8.073,8.073,0,0,1-2.448-4.276h3.587a9.04,9.04,0,0,1-.207-1.966A8.033,8.033,0,0,1,241.143,9.794Z" transform="translate(135.934 36)"/>
      
      <path id="Path_6" data-name="Path 6" class="color-light" d="M343.357,12.587h-1.931v9.794a4.656,4.656,0,1,1-9.311,0V12.829h2.138V4.345h-2.276V3.035h2.276V2h-9.346V12.587H322.7v9.966a13.9,13.9,0,0,0,1.655,6.656h2.931a13.54,13.54,0,0,0,1.448,2.207H325.8a14.1,14.1,0,0,0,21.829,0h2.931a16.444,16.444,0,0,0,1.483-2.207h-2.931a13.9,13.9,0,0,0,1.655-6.656V12.587h1.966V1h-9.38Z" transform="translate(68.585 35.345)"/>
     
      <path id="Path_7" data-name="Path 7" class="color-light" d="M423.428,1h-9.346V14.656h2.448v12.38H413.6V31.8h.483v4.759h9.346V31.8h-.483V27.037h2.931V14.656h-2.448Z" transform="translate(9.032 35.345)"/>

      <rect id="Rectangle_2" data-name="Rectangle 2" class="color-light" width="8.518" height="7.656" transform="translate(460.014 64.106)"/>

      <path id="Path_8" data-name="Path 8" class="color-light" d="M165.171,14.1v-.31h1.966A13.149,13.149,0,0,0,154.032,1H139.066V13.794H137.1V30.657h9.346V27.14h5.794l5.483,9.415h10.759l-7.552-12.9A12.886,12.886,0,0,0,165.171,14.1Zm-7.828-.31c0,.069.035.138.035.207a5.063,5.063,0,0,1-5.1,5.069H146.48V13.794h1.966V8.9h5.794a5.1,5.1,0,0,1,5.1,4.931h-2Z" transform="translate(190.18 35.345)"/>

    </g>

  </g>
</svg>
